<svg width="24" height="32" viewBox="0 0 24 32" fill="none" xmlns="http://www.w3.org/2000/svg">
<path d="M10.1624 11.7053V11.2858C10.1624 9.56797 9.48326 8.32953 8.12497 7.57048C7.50575 7.23091 6.96642 6.91131 6.48703 6.63166H13.7579C14.8166 6.63166 15.5956 6.89134 16.1349 7.43066C16.5743 7.85013 16.7941 8.38945 16.7941 9.02865C16.7941 10.8064 15.7953 11.7053 13.7978 11.7053L10.1624 11.7053ZM8.58439 30.4217L3.43087 27.1259C2.57195 26.4667 2.15248 25.488 2.15248 24.2295V3.75528C2.2923 5.1735 3.19117 6.41194 4.82911 7.45063C5.42836 7.83015 6.26731 8.32953 7.36592 8.94875C8.18489 9.40817 8.58439 10.1872 8.58439 11.2858V30.4217ZM15.0762 0H4.84909C3.67057 0 2.6918 0.299624 1.95273 0.89887C1.03389 1.63794 0.574463 2.79648 0.574463 4.35452V24.2295C0.574463 25.1284 0.774211 25.9873 1.19368 26.8063C1.57321 27.5454 2.03263 28.1047 2.59192 28.4642L7.74544 31.7401C8.26479 32.0797 8.80411 32.0797 9.34343 31.78C9.88276 31.4804 10.1624 31.041 10.1624 30.4217V18.2371L14.8365 18.1971C17.1736 18.1971 19.211 17.2583 20.9089 15.3807C22.5868 13.5629 23.4257 11.4456 23.4257 9.02865C23.4257 6.67161 22.6068 4.59422 20.9888 2.81646C19.3508 0.998744 17.3933 0.0599248 15.0962 0C15.0762 0 15.0762 0 15.0762 0L15.0762 0Z" fill="#E7E7FF"/>
</svg>
